<svg width="79" height="135" viewBox="0 0 79 135" fill="none" xmlns="http://www.w3.org/2000/svg">
<g clip-path="url(#clip0_55_32)">
<path d="M39.2357 47.7054C52.4416 47.7054 63.1471 37.0262 63.1471 23.8527C63.1471 10.6792 52.4416 0 39.2357 0C26.0298 0 15.3243 10.6792 15.3243 23.8527C15.3243 37.0262 26.0298 47.7054 39.2357 47.7054Z" fill="#FCBE2C"/>
<path d="M13.1531 52.0853C13.614 50.5549 15.141 49.4994 16.8696 49.5522L25.2324 49.5503C27.8254 49.6031 29.4886 52.1909 28.5378 54.4073L9.52296 99.0272C8.8027 100.716 6.75717 101.613 4.88449 101.033L2.57966 100.347C0.678176 99.7924 -0.387809 97.9453 0.130778 96.2038L13.1531 52.0853Z" fill="#FCBE2C"/>
<path d="M65.8626 52.0853C65.4012 50.5549 63.8727 49.4994 62.1423 49.5522H53.8997C51.3041 49.605 49.5107 52.1909 50.4624 54.4073L69.4675 99.0272C70.1885 100.716 72.2361 101.613 74.1106 101.033L76.4177 100.347C78.3211 99.7924 79.3882 97.9453 78.8691 96.2038L65.8626 52.0853Z" fill="#FCBE2C"/>
<path d="M18.324 49.5503H22.4582L20.0958 74.0879L17.4381 80.1239L18.324 49.5503Z" fill="#F1A42C"/>
<path d="M60.6759 49.5503H56.5417L58.9041 74.0879L61.5618 80.1239L60.6759 49.5503Z" fill="#F1A42C"/>
<path d="M19.2876 49.5503L20.6883 133.926C20.7074 135.077 21.648 136 22.8017 136H34.0381C34.3865 136 34.6721 135.662 34.6721 135.315L36.6813 101.974C36.7387 100.788 37.8294 99.865 39.0923 99.865C40.3552 99.865 41.4459 100.788 41.5033 101.974L43.5124 135.315C43.5124 135.666 43.794 136 44.1462 136H55.6698C56.8236 136 57.7641 135.077 57.7832 133.926L59.1839 49.5503H19.2876Z" fill="#FCBE2C"/>
<path d="M41.357 71.7083C40.3264 73.3875 37.881 73.3875 36.8503 71.7083L25.7131 53.5622C24.6352 51.8059 25.9022 49.5503 27.9665 49.5503H50.2409C52.3052 49.5503 53.5721 51.8059 52.4942 53.5622L41.357 71.7083Z" fill="#E58A2D"/>
</g>
<defs>
<clipPath id="clip0_55_32">
<rect width="79" height="136" fill="white"/>
</clipPath>
</defs>
</svg>
